<?xml version="1.0" encoding="utf-8"?>
<!-- Generator: Adobe Illustrator 19.2.1, SVG Export Plug-In . SVG Version: 6.00 Build 0)  -->
<svg version="1.1" id="Layer_1" xmlns="http://www.w3.org/2000/svg" xmlns:xlink="http://www.w3.org/1999/xlink" x="0px" y="0px"
	 viewBox="0 0 102 36" style="enable-background:new 0 0 102 36;" xml:space="preserve">
<style type="text/css">
	.st0{font-family:'Kefa-Regular';}
	.st1{font-size:19.5px;}
</style>
<path d="M3,12.3c0.4-0.6,0.8-1.2,1.3-1.7C5.3,9.3,6.6,8.2,8,7.4C8.6,7,9.2,7.1,9.6,7.6C9.7,7.8,9.8,7.8,10,7.7
	c0.9-0.3,1.9-0.6,2.8-0.9c0.1,0,0.2-0.2,0.2-0.3c0.1-0.7,0.5-1.2,1.2-1.2c1.1,0,2.1,0,3.2,0.1c2,0.1,4.1,0.3,6.1,0.4
	c2.9,0.2,5.7,0.4,8.6,0.6c0.8,0.1,1.2,0.3,1.4,1.1c0.2,0.5,0.4,1.1,0.5,1.7c-0.1,0-0.3,0-0.4,0.1c-5.2,1.7-10.3,3.4-15.5,5.1
	c-0.2,0.1-0.4,0.1-0.7,0c-2.5-1.1-5.7,0-7.1,2.4c-1.6,2.6-0.8,5.9,1.4,7.6c2.7,2.1,6.6,1.4,8.4-1.4c0.2-0.3,0.4-0.5,0.8-0.6
	c5.1-1.6,10.2-3.3,15.2-5c0.1,0,0.2-0.1,0.3-0.1c0.3,0.7,0.5,1.3,0.7,2c0.1,0.5-0.1,0.9-0.5,1.2c-1.2,1-2.4,2-3.7,3.1
	c-1.3,1.1-2.6,2.2-3.9,3.3c0.1,0,0.2-0.1,0.3-0.1c0.6-0.2,1.2-0.4,1.9-0.6c0.9-0.2,1.9,0.3,2.2,1.3c0.3,0.9-0.1,1.9-1,2.3
	c-0.1,0.1-0.3,0.1-0.4,0.2c-1.2,0.4-2.5,0.8-3.7,1.2c-0.5,0.2-0.9,0.1-1.3-0.1c-0.5-0.3-1.1-0.6-1.6-0.9c-0.2-0.1-0.3-0.1-0.5,0.1
	c-0.7,0.6-1.5,1.2-2.2,1.7c-0.7,0.5-1.2,0.4-1.8-0.2c-0.1-0.1-0.2-0.1-0.3-0.1c-1,0.3-1.9,0.6-2.9,0.9c-0.1,0-0.2,0.2-0.2,0.3
	c-0.1,0.7-0.5,1.1-1.2,1.2c-2.2,0.2-4.4-0.1-6.4-0.9c-4.1-1.6-7-4.5-8.4-8.7c-1.1-3.1-1.1-6.3,0-9.4c0.1-0.3,0.3-0.7,0.4-1
	C2.5,13.4,2.7,12.9,3,12.3z"/>
<text transform="matrix(1 0 0 1 35.2748 16.0728)" class="st0 st1">orellian</text>
<text transform="matrix(1 0 0 1 44.9971 31.3736)" class="st0 st1">design</text>
</svg>
